<?xml version="1.0" standalone="no"?>
<!DOCTYPE svg PUBLIC "-//W3C//DTD SVG 20010904//EN"
 "http://www.w3.org/TR/2001/REC-SVG-20010904/DTD/svg10.dtd">
<svg version="1.0" xmlns="http://www.w3.org/2000/svg"
 width="512.000000pt" height="512.000000pt" viewBox="0 0 512.000000 512.000000"
 preserveAspectRatio="xMidYMid meet">

<g transform="translate(0.000000,512.000000) scale(0.100000,-0.100000)"
fill="#000000" stroke="none">
<path d="M3505 5113 c-79 -19 -226 -73 -310 -113 -416 -199 -605 -476 -622
-912 -5 -114 -3 -138 8 -138 33 1 197 42 282 71 249 85 479 253 580 426 94
162 137 400 111 621 -7 52 -10 54 -49 45z"/>
<path d="M3370 3879 c-114 -13 -199 -38 -390 -114 -369 -150 -432 -152 -735
-28 -129 53 -232 90 -295 104 -212 49 -487 19 -685 -76 -311 -148 -596 -485
-714 -845 -153 -468 -78 -1153 196 -1795 238 -556 609 -995 928 -1096 151 -48
248 -35 535 71 248 91 321 111 445 117 128 7 201 -11 455 -108 420 -162 507
-150 835 121 216 178 324 325 509 696 75 150 186 406 186 427 0 7 -33 29 -74
50 -286 147 -484 406 -583 762 -34 123 -43 344 -19 463 53 260 225 517 471
703 30 23 55 46 55 51 0 6 -53 63 -117 127 -118 117 -225 197 -348 258 -175
88 -448 135 -655 112z"/>
</g>
</svg>
