<?xml version="1.0" standalone="no"?>
<!DOCTYPE svg PUBLIC "-//W3C//DTD SVG 20010904//EN"
 "http://www.w3.org/TR/2001/REC-SVG-20010904/DTD/svg10.dtd">
<svg version="1.0" xmlns="http://www.w3.org/2000/svg"
 width="512.000000pt" height="512.000000pt" viewBox="0 0 512.000000 512.000000"
 preserveAspectRatio="xMidYMid meet">

<g transform="translate(0.000000,512.000000) scale(0.100000,-0.100000)"
fill="#000000" stroke="none">
<path d="M115 4885 c-117 -55 -150 -198 -68 -296 52 -62 62 -64 357 -69 l270
-5 314 -1315 c338 -1417 318 -1346 396 -1404 27 -21 29 -21 1573 -24 l1546 -2
44 21 c83 40 74 11 335 1067 257 1039 253 1015 207 1088 -11 19 -40 45 -63 59
l-43 25 -1896 0 c-1257 0 -1898 3 -1902 10 -3 6 -46 177 -95 381 -98 405 -104
420 -180 459 -37 19 -59 20 -402 20 -291 -1 -369 -4 -393 -15z m4565 -1242 c0
-5 -83 -341 -183 -748 l-183 -740 -1341 -3 -1341 -2 -16 67 c-8 38 -87 369
-176 738 -88 368 -160 675 -160 682 0 11 333 13 1700 13 935 0 1700 -3 1700
-7z"/>
<path d="M1560 1467 c-435 -130 -604 -653 -323 -1004 136 -170 318 -252 532
-240 170 9 302 68 423 190 53 52 78 89 112 160 52 109 66 168 66 285 0 175
-62 325 -186 449 -57 57 -90 80 -165 116 -52 25 -118 50 -147 56 -89 18 -227
13 -312 -12z m285 -382 c191 -92 192 -357 1 -458 -57 -30 -165 -30 -222 0 -79
42 -144 145 -144 228 0 48 33 128 68 167 54 60 122 90 197 85 33 -2 78 -12
100 -22z"/>
<path d="M3902 1476 c-102 -26 -217 -92 -296 -170 -60 -59 -82 -90 -119 -167
-53 -110 -67 -169 -67 -284 0 -106 14 -171 55 -262 112 -243 347 -385 614
-370 168 9 294 65 414 184 74 73 119 144 155 245 23 64 26 88 27 198 0 102 -4
138 -22 195 -60 188 -208 341 -401 413 -55 20 -89 26 -187 28 -78 2 -139 -1
-173 -10z m248 -387 c201 -91 210 -359 16 -462 -57 -30 -165 -30 -222 0 -204
108 -187 386 31 470 48 18 125 15 175 -8z"/>
</g>
</svg>
