<?xml version="1.0" standalone="no"?>
<!DOCTYPE svg PUBLIC "-//W3C//DTD SVG 20010904//EN"
 "http://www.w3.org/TR/2001/REC-SVG-20010904/DTD/svg10.dtd">
<svg version="1.0" xmlns="http://www.w3.org/2000/svg"
 width="512.000000pt" height="512.000000pt" viewBox="0 0 512.000000 512.000000"
 preserveAspectRatio="xMidYMid meet">

<g transform="translate(0.000000,512.000000) scale(0.100000,-0.100000)"
fill="#000000" stroke="none">
<path d="M970 4785 c-337 -68 -586 -328 -640 -665 -7 -47 -10 -155 -8 -287 3
-232 5 -237 72 -287 39 -29 133 -29 172 0 68 50 68 52 75 317 6 261 10 283 73
391 32 55 125 140 187 172 113 57 35 54 1659 54 1629 0 1546 3 1662 -56 63
-32 151 -114 185 -171 62 -106 66 -129 72 -390 6 -223 8 -244 27 -269 39 -53
71 -69 134 -69 63 0 95 16 134 69 20 26 21 41 21 279 0 266 -3 292 -55 429
-29 78 -106 194 -175 263 -100 100 -213 164 -375 213 -50 15 -189 17 -1605 19
-1251 1 -1563 -1 -1615 -12z"/>
<path d="M3811 3350 c-39 -9 -77 -35 -105 -74 -21 -27 -21 -38 -24 -708 -2
-673 -2 -681 19 -724 12 -26 35 -53 57 -66 36 -22 43 -23 277 -22 211 1 250 4
320 23 156 42 278 114 387 229 316 336 282 863 -75 1163 -78 66 -202 130 -297
154 -111 29 -475 45 -559 25z m522 -349 c318 -124 407 -539 169 -784 -93 -96
-195 -135 -379 -144 l-123 -6 0 484 0 484 137 -6 c110 -4 150 -10 196 -28z"/>
<path d="M727 3330 c-348 -93 -585 -438 -564 -820 17 -301 178 -556 432 -681
111 -54 190 -72 310 -72 121 0 200 19 315 76 70 34 102 58 180 136 113 113
172 211 153 253 -19 43 -75 61 -167 56 -94 -5 -139 -25 -218 -95 -28 -25 -77
-58 -107 -72 -49 -23 -69 -26 -161 -26 -100 0 -109 2 -175 34 -172 85 -276
269 -262 466 10 145 82 282 189 360 83 62 143 80 258 80 82 0 103 -4 152 -27
83 -38 123 -72 187 -157 68 -91 126 -130 204 -138 66 -7 95 -1 125 27 38 36
30 93 -30 212 -44 87 -66 117 -143 193 -103 104 -203 162 -331 195 -101 26
-252 26 -347 0z"/>
<path d="M2405 3334 c-335 -74 -582 -346 -626 -690 -31 -249 75 -527 263 -687
162 -137 328 -198 537 -198 436 1 791 354 791 789 0 229 -86 430 -249 585 -88
83 -180 137 -301 178 -83 28 -111 32 -220 35 -87 3 -146 -1 -195 -12z m290
-319 c295 -77 441 -407 302 -680 -80 -158 -240 -255 -421 -255 -242 0 -436
163 -476 401 -39 232 117 470 349 535 64 17 176 17 246 -1z"/>
<path d="M415 1586 c-41 -18 -83 -69 -91 -110 -12 -68 2 -487 19 -546 61 -214
171 -368 344 -480 76 -50 142 -79 248 -108 55 -16 195 -17 1625 -17 1430 0
1570 1 1625 17 158 44 277 111 380 213 69 69 146 185 175 263 52 137 55 163
55 429 0 238 -1 253 -21 279 -39 53 -71 69 -134 69 -63 0 -95 -16 -134 -69
-19 -25 -21 -46 -27 -269 -6 -261 -10 -284 -72 -390 -59 -101 -195 -194 -316
-217 -35 -6 -571 -10 -1540 -10 -1614 0 -1537 -3 -1650 54 -62 32 -155 117
-187 172 -63 108 -67 130 -73 391 -7 264 -7 267 -73 316 -33 25 -113 32 -153
13z"/>
</g>
</svg>
