<?xml version="1.0" standalone="no"?>
<!DOCTYPE svg PUBLIC "-//W3C//DTD SVG 20010904//EN"
 "http://www.w3.org/TR/2001/REC-SVG-20010904/DTD/svg10.dtd">
<svg version="1.0" xmlns="http://www.w3.org/2000/svg"
 width="512.000000pt" height="512.000000pt" viewBox="0 0 512.000000 512.000000"
 preserveAspectRatio="xMidYMid meet">

<g transform="translate(0.000000,512.000000) scale(0.100000,-0.100000)"
fill="#000000" stroke="none">
<path d="M529 4306 c-49 -34 -73 -86 -67 -148 6 -61 31 -96 88 -125 l44 -23
1278 0 1278 0 0 -589 0 -588 22 -33 c13 -18 36 -43 51 -54 28 -21 37 -21 685
-24 l657 -3 117 -152 118 -152 0 -412 0 -413 -154 0 -154 0 -21 63 c-56 167
-221 329 -396 387 -333 111 -704 -68 -814 -392 l-18 -53 -477 0 -477 0 -28 72
c-56 142 -163 260 -301 332 -97 51 -184 73 -290 73 -113 1 -188 -16 -285 -62
-157 -76 -285 -217 -332 -367 l-16 -52 -231 -3 c-254 -3 -272 -7 -320 -71 -31
-42 -30 -140 2 -185 45 -63 62 -67 319 -70 l231 -4 22 -58 c48 -127 176 -273
297 -338 129 -68 319 -92 458 -57 203 51 373 201 446 392 l24 63 481 0 480 0
18 -55 c23 -74 104 -193 174 -255 65 -58 209 -133 290 -149 84 -17 219 -13
307 9 188 48 354 195 428 380 l26 65 258 5 c247 5 260 6 295 28 21 13 45 40
57 66 20 41 21 56 21 587 0 326 -4 558 -10 579 -6 20 -77 121 -166 235 l-156
200 -240 480 c-132 264 -251 495 -265 514 -46 60 -55 61 -452 61 l-359 0 -4
109 c-3 121 -13 144 -78 189 l-33 22 -1396 0 -1396 0 -36 -24z m3691 -936 c88
-176 160 -322 160 -325 0 -3 -205 -5 -455 -5 l-455 0 0 325 0 325 295 0 295 0
160 -320z m-2443 -1641 c76 -29 143 -93 178 -171 24 -54 27 -69 23 -142 -6
-99 -36 -165 -104 -224 -146 -129 -371 -101 -476 60 -90 137 -73 296 44 410
88 85 216 111 335 67z m2227 -8 c199 -97 245 -366 88 -518 -155 -151 -412
-110 -509 80 -91 181 0 394 197 458 50 16 172 5 224 -20z"/>
<path d="M354 3656 c-61 -27 -101 -108 -85 -177 12 -53 38 -86 85 -109 43 -20
53 -20 774 -18 723 3 731 3 759 24 15 11 38 36 51 54 46 68 18 176 -58 219
-37 21 -42 21 -766 21 -588 -1 -735 -3 -760 -14z"/>
<path d="M90 3018 c-61 -31 -92 -86 -87 -151 5 -54 27 -91 77 -124 l33 -23
737 0 737 0 33 23 c48 32 72 69 77 118 6 64 -28 127 -87 157 l-44 22 -716 0
-716 0 -44 -22z"/>
<path d="M343 2380 c-85 -52 -103 -171 -36 -242 54 -58 56 -58 491 -58 398 0
399 0 443 23 88 47 114 164 52 237 -51 61 -43 60 -500 60 -397 0 -420 -1 -450
-20z"/>
</g>
</svg>
