<?xml version="1.0" standalone="no"?>
<!DOCTYPE svg PUBLIC "-//W3C//DTD SVG 20010904//EN"
 "http://www.w3.org/TR/2001/REC-SVG-20010904/DTD/svg10.dtd">
<svg version="1.0" xmlns="http://www.w3.org/2000/svg"
 width="24.000000pt" height="24.000000pt" viewBox="0 0 24.000000 24.000000"
 preserveAspectRatio="xMidYMid meet">

<g transform="translate(0.000000,24.000000) scale(0.100000,-0.100000)"
fill="#000000" stroke="none">
<path d="M32 138 c3 -69 4 -73 28 -76 14 -2 31 -9 38 -14 9 -8 12 5 12 59 0
76 -15 103 -59 103 -21 0 -22 -3 -19 -72z"/>
<path d="M147 192 c-21 -23 -25 -161 -4 -144 6 5 23 12 37 14 24 3 25 7 28 76
3 70 2 72 -21 72 -13 0 -31 -8 -40 -18z"/>
<path d="M1 108 l-1 -78 46 0 c27 0 43 4 39 10 -3 6 -17 10 -30 10 -31 0 -38
13 -46 80 -6 53 -6 53 -8 -22z"/>
<path d="M230 134 c0 -58 -14 -84 -45 -84 -13 0 -27 -4 -30 -10 -4 -6 12 -10
39 -10 l46 0 0 75 c0 41 -2 75 -5 75 -3 0 -5 -21 -5 -46z"/>
</g>
</svg>
