<?xml version="1.0" standalone="no"?>
<!DOCTYPE svg PUBLIC "-//W3C//DTD SVG 20010904//EN"
 "http://www.w3.org/TR/2001/REC-SVG-20010904/DTD/svg10.dtd">
<svg version="1.0" xmlns="http://www.w3.org/2000/svg"
 width="512.000000pt" height="512.000000pt" viewBox="0 0 512.000000 512.000000"
 preserveAspectRatio="xMidYMid meet">

<g transform="translate(0.000000,512.000000) scale(0.100000,-0.100000)"
fill="#000000" stroke="none">
<path d="M440 4884 c-134 -35 -280 -143 -349 -258 -65 -109 -84 -178 -85 -306
-1 -88 3 -128 18 -170 37 -109 77 -173 155 -251 118 -117 244 -169 411 -169
166 0 291 52 411 170 235 232 237 590 5 825 -78 80 -168 132 -273 159 -75 20
-219 20 -293 0z m275 -312 c181 -94 214 -330 66 -470 -77 -73 -209 -93 -307
-48 -238 111 -223 440 23 532 54 20 167 13 218 -14z"/>
<path d="M1851 4460 c-50 -12 -84 -42 -105 -93 -17 -41 -18 -51 -7 -88 16 -53
56 -94 107 -108 55 -15 3103 -15 3159 0 134 36 154 210 32 277 -30 16 -134 17
-1592 19 -858 0 -1575 -3 -1594 -7z"/>
<path d="M465 3135 c-224 -49 -403 -228 -450 -450 -50 -237 44 -474 242 -608
350 -239 820 -48 908 369 18 87 18 141 0 228 -69 325 -382 531 -700 461z m252
-321 c98 -47 156 -141 156 -254 0 -161 -123 -284 -282 -284 -163 1 -285 122
-285 284 -1 215 216 348 411 254z"/>
<path d="M1810 2688 c-54 -37 -74 -72 -74 -128 0 -56 20 -91 74 -127 l33 -23
1581 0 c1521 0 1583 1 1616 19 42 22 80 84 80 131 0 47 -38 109 -80 131 -33
18 -95 19 -1616 19 l-1581 0 -33 -22z"/>
<path d="M440 1374 c-102 -27 -180 -73 -261 -153 -78 -78 -118 -142 -155 -251
-30 -87 -26 -263 8 -352 73 -194 225 -335 413 -383 77 -19 211 -19 288 1 257
66 447 308 447 569 0 260 -190 503 -445 570 -74 19 -221 19 -295 -1z m265
-308 c222 -104 228 -401 10 -519 -58 -32 -192 -31 -252 1 -103 54 -157 143
-157 257 1 118 53 203 156 254 80 40 168 43 243 7z"/>
<path d="M1835 945 c-49 -17 -80 -52 -96 -106 -11 -34 -10 -46 7 -87 24 -58
68 -89 137 -97 29 -3 743 -5 1587 -3 1433 3 1537 4 1567 20 122 67 102 241
-32 277 -28 8 -502 11 -1585 11 -1306 -1 -1551 -3 -1585 -15z"/>
</g>
</svg>
