<?xml version="1.0" standalone="no"?>
<!DOCTYPE svg PUBLIC "-//W3C//DTD SVG 20010904//EN"
 "http://www.w3.org/TR/2001/REC-SVG-20010904/DTD/svg10.dtd">
<svg version="1.0" xmlns="http://www.w3.org/2000/svg"
 width="512.000000pt" height="512.000000pt" viewBox="0 0 512.000000 512.000000"
 preserveAspectRatio="xMidYMid meet">

<g transform="translate(0.000000,512.000000) scale(0.100000,-0.100000)"
fill="#000000" stroke="none">
<path d="M1361 4550 c-646 -312 -1180 -576 -1188 -586 -11 -15 -13 -266 -13
-1405 0 -1306 1 -1388 18 -1407 19 -23 2355 -1152 2383 -1152 27 0 2362 1129
2381 1152 17 19 18 101 18 1408 0 1307 -1 1389 -17 1408 -23 26 -2357 1152
-2386 1151 -12 0 -550 -256 -1196 -569z m2286 -113 c583 -282 1060 -514 1058
-515 -2 -2 -141 -71 -310 -152 l-306 -149 -157 78 c-86 42 -568 275 -1069 517
-502 241 -913 442 -913 445 0 12 605 298 620 293 8 -3 493 -235 1077 -517z
m-801 -379 c585 -282 1064 -515 1064 -518 0 -5 -421 -210 -432 -210 -5 0 -505
240 -1721 828 l-428 207 33 15 c18 8 114 54 212 102 99 49 186 88 194 88 8 0
493 -231 1078 -512z m-561 -321 l1120 -542 3 -465 c2 -460 2 -464 24 -487 12
-13 32 -23 46 -23 28 0 606 276 624 298 10 11 14 129 18 485 l5 470 339 163
c187 90 341 164 343 164 2 0 3 -575 3 -1278 l0 -1278 -1076 -519 c-592 -286
-1080 -521 -1085 -523 -5 -2 -9 534 -9 1275 l0 1279 237 114 c131 63 251 122
268 130 42 21 60 62 43 97 -7 15 -26 34 -41 41 -27 13 -38 9 -230 -83 -111
-54 -237 -113 -280 -133 l-77 -36 -93 43 c-50 24 -104 48 -119 54 -39 16 -79
-1 -94 -39 -21 -51 -2 -72 118 -134 l108 -55 0 -1278 c0 -703 -4 -1277 -8
-1275 -5 1 -493 237 -1085 523 l-1077 520 0 1277 c0 703 2 1278 4 1278 2 0
376 -180 832 -400 486 -235 839 -400 856 -400 15 0 37 9 48 20 25 25 26 81 3
103 -10 8 -225 115 -478 237 -807 389 -857 413 -1012 490 l-152 75 367 177
c202 97 372 177 377 177 6 0 514 -244 1130 -542z m1685 -735 l0 -389 -199 -96
c-110 -54 -202 -97 -205 -97 -3 0 -6 175 -6 390 l0 389 193 95 c105 52 198 95
205 95 9 1 12 -83 12 -387z"/>
<path d="M501 2034 c-24 -30 -27 -62 -8 -87 17 -24 687 -347 718 -347 62 0 96
78 53 120 -30 30 -681 340 -714 340 -19 0 -35 -9 -49 -26z"/>
<path d="M520 1697 c-35 -18 -48 -61 -30 -95 20 -35 357 -205 409 -205 63 -2
95 77 49 120 -23 22 -344 179 -382 188 -12 3 -32 -1 -46 -8z"/>
</g>
</svg>
