<?xml version="1.0" standalone="no"?>
<!DOCTYPE svg PUBLIC "-//W3C//DTD SVG 20010904//EN"
 "http://www.w3.org/TR/2001/REC-SVG-20010904/DTD/svg10.dtd">
<svg version="1.0" xmlns="http://www.w3.org/2000/svg"
 width="512.000000pt" height="512.000000pt" viewBox="0 0 512.000000 512.000000"
 preserveAspectRatio="xMidYMid meet">

<g transform="translate(0.000000,512.000000) scale(0.100000,-0.100000)"
fill="#000000" stroke="none">
<path d="M1250 4310 c-541 -313 -990 -577 -997 -586 -10 -14 -13 -252 -13
-1165 0 -1078 1 -1148 18 -1167 27 -31 1977 -1152 2003 -1152 13 0 190 97 394
214 l369 214 83 -88 c104 -110 194 -178 314 -234 394 -187 850 -109 1155 198
93 94 151 176 205 290 201 430 73 953 -303 1236 -44 34 -107 74 -139 91 l-59
29 0 759 c0 708 -1 760 -17 779 -28 32 -1977 1152 -2004 1152 -13 -1 -467
-257 -1009 -570z m1898 -115 c485 -280 882 -512 882 -515 0 -6 -857 -503 -876
-508 -15 -4 -1656 1089 -1649 1097 11 11 750 439 756 437 3 0 402 -230 887
-511z m-985 -566 c446 -298 815 -544 820 -548 4 -4 -157 -102 -358 -218 l-365
-211 -288 167 c-158 91 -556 321 -885 511 -328 190 -597 347 -597 350 0 8 833
489 848 489 6 1 378 -243 825 -540z m-815 -634 l832 -480 0 -1028 c0 -566 -3
-1026 -7 -1024 -5 2 -82 47 -173 100 -497 287 -670 387 -1113 642 l-486 280
-1 1028 0 1028 58 -33 c32 -18 433 -249 890 -513z m2768 -742 c-3 -3 -46 2
-97 11 -283 49 -573 -29 -802 -214 -162 -131 -288 -328 -344 -535 -23 -87 -26
-120 -27 -250 0 -166 12 -231 66 -373 17 -45 29 -84 27 -86 -3 -3 -348 -203
-591 -343 -5 -2 -8 458 -8 1024 l1 1028 357 207 357 207 5 -331 5 -330 24 -19
c32 -26 77 -24 106 6 l25 24 0 373 0 373 448 258 447 257 3 -642 c1 -352 0
-643 -2 -645z m-126 -143 c334 -53 595 -284 697 -617 23 -78 26 -104 26 -233
0 -129 -3 -155 -27 -235 -89 -293 -298 -502 -591 -591 -80 -24 -106 -27 -235
-27 -129 0 -155 3 -233 26 -532 162 -780 740 -526 1227 166 320 534 506 889
450z"/>
<path d="M4268 1708 c-8 -7 -120 -152 -248 -323 -129 -170 -243 -322 -256
-337 l-21 -26 -133 156 c-141 168 -172 192 -218 170 -34 -17 -57 -58 -49 -89
9 -32 334 -419 370 -439 24 -13 30 -13 55 0 15 9 149 176 297 371 149 196 282
370 298 388 52 62 26 141 -46 141 -18 0 -40 -6 -49 -12z"/>
</g>
</svg>
