<?xml version="1.0" standalone="no"?>
<!DOCTYPE svg PUBLIC "-//W3C//DTD SVG 20010904//EN"
 "http://www.w3.org/TR/2001/REC-SVG-20010904/DTD/svg10.dtd">
<svg version="1.0" xmlns="http://www.w3.org/2000/svg"
 width="512.000000pt" height="512.000000pt" viewBox="0 0 512.000000 512.000000"
 preserveAspectRatio="xMidYMid meet">

<g transform="translate(0.000000,512.000000) scale(0.100000,-0.100000)"
fill="#000000" stroke="none">
<path d="M650 4998 c-33 -17 -51 -35 -68 -68 l-23 -45 3 -497 c3 -486 3 -497
24 -525 11 -15 36 -38 54 -50 l33 -23 499 0 c551 0 545 -1 590 63 33 46 36
123 6 166 -53 77 -43 75 -391 81 l-311 5 79 70 c577 508 1368 666 2101 420
543 -181 1000 -585 1251 -1105 348 -720 262 -1580 -223 -2226 -73 -98 -244
-275 -346 -360 -321 -268 -741 -442 -1167 -484 -291 -28 -584 5 -871 100 -318
105 -580 264 -819 495 -263 255 -440 536 -551 873 -69 211 -110 450 -110 638
0 114 -58 184 -151 184 -61 0 -109 -28 -137 -81 -23 -42 -23 -50 -17 -174 33
-624 281 -1189 715 -1626 372 -375 855 -619 1385 -701 198 -30 512 -30 710 0
522 81 997 317 1365 681 385 380 629 860 712 1396 30 198 30 512 0 710 -124
805 -615 1480 -1343 1846 -348 174 -689 253 -1094 252 -243 0 -405 -21 -621
-78 -366 -97 -742 -299 -1003 -541 l-60 -55 -3 290 c-3 274 -4 291 -24 317
-52 70 -122 89 -194 52z"/>
<path d="M1895 3550 c-562 -211 -644 -245 -675 -275 l-35 -35 -3 -733 c-2
-504 0 -744 8 -769 6 -22 24 -47 43 -62 44 -33 1284 -496 1328 -496 41 0 1278
461 1323 493 57 41 56 22 56 813 0 719 0 727 -21 764 -11 20 -33 44 -47 52
-45 27 -1264 480 -1302 485 -27 3 -173 -48 -675 -237z m1044 -221 c207 -77
383 -145 391 -149 12 -7 10 -10 -10 -18 -14 -5 -190 -71 -392 -147 l-366 -137
-369 137 c-202 76 -379 142 -392 147 -13 5 -21 11 -18 14 6 6 757 291 771 293
5 1 179 -62 385 -140z m-987 -551 l458 -172 0 -523 c0 -412 -3 -523 -12 -523
-7 0 -215 77 -463 170 l-450 169 -3 525 c-1 289 1 526 5 526 3 0 213 -77 465
-172z m1686 -354 l-3 -526 -450 -169 c-247 -93 -456 -169 -462 -169 -10 0 -13
111 -13 523 l0 523 458 172 c251 94 460 171 465 172 4 0 6 -237 5 -526z"/>
</g>
</svg>
