<?xml version="1.0" standalone="no"?>
<!DOCTYPE svg PUBLIC "-//W3C//DTD SVG 20010904//EN"
 "http://www.w3.org/TR/2001/REC-SVG-20010904/DTD/svg10.dtd">
<svg version="1.0" xmlns="http://www.w3.org/2000/svg"
 width="512.000000pt" height="512.000000pt" viewBox="0 0 512.000000 512.000000"
 preserveAspectRatio="xMidYMid meet">

<g transform="translate(0.000000,512.000000) scale(0.100000,-0.100000)"
fill="#000000" stroke="none">
<path d="M1158 4900 c-156 -19 -340 -87 -475 -177 -171 -113 -325 -308 -401
-508 -69 -183 -67 -144 -67 -1220 0 -1043 0 -1037 53 -1195 76 -230 227 -425
429 -557 105 -69 189 -107 311 -141 l97 -27 1455 0 1455 0 85 23 c442 120 748
475 800 928 8 70 10 376 7 1029 -3 821 -6 938 -20 997 -54 218 -136 374 -276
521 -154 161 -323 257 -556 314 -64 15 -187 17 -1450 19 -759 1 -1410 -2
-1447 -6z m1497 -1297 c76 -40 115 -105 115 -188 0 -85 -48 -160 -125 -196
-38 -17 -80 -19 -723 -19 -595 0 -687 2 -720 16 -79 33 -132 110 -132 194 0
105 56 179 160 211 14 4 331 7 705 6 675 -2 680 -2 720 -24z m1301 -865 c21
-15 50 -44 64 -65 21 -31 25 -48 25 -113 0 -65 -4 -82 -25 -113 -14 -21 -43
-50 -64 -65 l-39 -27 -1357 0 -1356 0 -37 25 c-21 14 -50 43 -65 64 -24 35
-27 49 -27 117 0 70 3 81 30 120 17 23 50 53 74 66 l45 23 1346 -2 1347 -3 39
-27z"/>
<path d="M1200 624 c-78 -34 -130 -111 -130 -194 0 -88 38 -152 115 -193 l40
-22 1335 0 1335 0 45 25 c67 38 103 96 108 174 5 71 -14 120 -65 168 -65 62
24 58 -1425 58 -1160 -1 -1327 -3 -1358 -16z"/>
</g>
</svg>
