<?xml version="1.0" standalone="no"?>
<!DOCTYPE svg PUBLIC "-//W3C//DTD SVG 20010904//EN"
 "http://www.w3.org/TR/2001/REC-SVG-20010904/DTD/svg10.dtd">
<svg version="1.0" xmlns="http://www.w3.org/2000/svg"
 width="512.000000pt" height="512.000000pt" viewBox="0 0 512.000000 512.000000"
 preserveAspectRatio="xMidYMid meet">

<g transform="translate(0.000000,512.000000) scale(0.100000,-0.100000)"
fill="#000000" stroke="none">
<path d="M2330 5110 c-403 -36 -839 -189 -1170 -409 -311 -208 -593 -498 -783
-807 -378 -617 -475 -1369 -267 -2064 250 -836 921 -1496 1765 -1734 238 -67
416 -90 705 -90 256 1 397 18 629 79 180 48 297 92 476 180 267 131 460 269
676 485 211 210 343 389 470 635 329 637 376 1353 136 2040 -67 192 -199 444
-324 617 -530 738 -1417 1148 -2313 1068z m1356 -595 c166 -91 171 -73 -132
-557 -135 -216 -257 -407 -270 -425 -13 -17 -37 -34 -53 -38 -36 -8 -93 15
-126 51 -47 51 -43 66 181 536 121 256 215 442 230 456 37 33 76 28 170 -23z
m588 -501 c21 -8 128 -147 192 -249 108 -172 214 -397 214 -454 0 -66 -10 -70
-508 -231 -254 -83 -472 -150 -483 -150 -44 0 -79 30 -113 98 -19 38 -51 95
-70 128 -27 45 -36 70 -36 105 l0 47 288 284 c402 398 435 428 471 428 16 0
36 -3 45 -6z m-1518 -818 c186 -59 327 -184 409 -361 45 -97 59 -164 59 -275
0 -111 -14 -178 -59 -275 -69 -149 -171 -253 -320 -324 -104 -50 -168 -65
-285 -65 -117 0 -181 15 -285 65 -149 71 -251 175 -320 324 -46 99 -59 165
-58 285 1 179 66 333 193 460 99 98 227 165 364 190 80 14 214 4 302 -24z
m-1082 -1346 c38 -14 194 -173 202 -205 4 -16 3 -40 -3 -54 -16 -42 -542 -788
-576 -817 -55 -47 -91 -30 -257 120 -81 73 -226 232 -246 269 -20 38 -10 77
29 114 40 38 736 548 774 568 33 18 43 18 77 5z"/>
<path d="M2480 2959 c-73 -14 -163 -64 -214 -119 -224 -240 -93 -624 232 -681
263 -46 510 199 463 462 -30 175 -159 307 -330 339 -62 11 -88 11 -151 -1z"/>
</g>
</svg>
