<?xml version="1.0" standalone="no"?>
<!DOCTYPE svg PUBLIC "-//W3C//DTD SVG 20010904//EN"
 "http://www.w3.org/TR/2001/REC-SVG-20010904/DTD/svg10.dtd">
<svg version="1.0" xmlns="http://www.w3.org/2000/svg"
 width="512.000000pt" height="512.000000pt" viewBox="0 0 512.000000 512.000000"
 preserveAspectRatio="xMidYMid meet">

<g transform="translate(0.000000,512.000000) scale(0.100000,-0.100000)"
fill="#000000" stroke="none">
<path d="M2442 4937 c-47 -16 -124 -66 -301 -194 l-238 -172 -319 -3 -319 -3
-55 -28 c-67 -34 -140 -104 -168 -160 -12 -24 -60 -162 -107 -307 -48 -146
-90 -268 -93 -271 -4 -3 -113 -83 -243 -177 -259 -187 -292 -222 -325 -336
-26 -94 -16 -151 80 -447 47 -146 86 -271 86 -279 0 -8 -39 -133 -86 -279 -96
-296 -106 -353 -80 -447 33 -114 66 -149 325 -336 130 -94 239 -174 243 -177
3 -3 45 -125 93 -271 47 -146 95 -283 106 -305 30 -59 96 -123 164 -158 l60
-32 319 -3 319 -3 241 -175 c257 -186 312 -214 416 -214 104 0 159 28 416 214
l242 175 318 3 319 3 60 32 c68 35 134 99 164 158 11 22 59 159 106 305 48
146 90 268 93 271 4 3 112 82 241 175 260 188 296 225 326 339 27 97 17 150
-79 446 -47 146 -86 271 -86 279 0 8 39 133 86 279 96 296 106 349 79 446 -30
114 -66 151 -326 339 -129 93 -237 172 -241 175 -3 3 -45 125 -93 271 -47 145
-95 283 -107 307 -28 56 -101 126 -168 160 l-55 28 -319 3 -319 3 -211 153
c-259 187 -279 200 -346 220 -73 22 -143 20 -218 -7z m957 -1097 c135 -38 205
-201 140 -325 -20 -38 -669 -929 -1420 -1950 -191 -260 -213 -280 -307 -292
-135 -16 -256 92 -255 226 0 31 7 72 15 91 14 31 301 427 1301 1790 179 245
310 414 331 428 59 40 128 52 195 32z m-1339 -269 c223 -85 321 -333 215 -547
-120 -245 -442 -298 -634 -105 -154 153 -155 396 -2 554 108 113 277 152 421
98z m1305 -1289 c161 -76 255 -251 225 -420 -30 -172 -160 -302 -332 -332
-170 -30 -344 64 -421 228 -29 61 -32 76 -32 162 0 86 3 101 32 162 40 85 97
147 172 186 78 42 122 52 213 48 61 -3 92 -11 143 -34z"/>
</g>
</svg>
