<?xml version="1.0" standalone="no"?>
<!DOCTYPE svg PUBLIC "-//W3C//DTD SVG 20010904//EN"
 "http://www.w3.org/TR/2001/REC-SVG-20010904/DTD/svg10.dtd">
<svg version="1.0" xmlns="http://www.w3.org/2000/svg"
 width="512.000000pt" height="512.000000pt" viewBox="0 0 512.000000 512.000000"
 preserveAspectRatio="xMidYMid meet">

<g transform="translate(0.000000,512.000000) scale(0.100000,-0.100000)"
fill="#000000" stroke="none">
<path d="M1260 5111 c-76 -25 -127 -70 -159 -141 -18 -40 -21 -66 -21 -216 l0
-172 -307 -4 c-282 -4 -314 -7 -374 -27 -82 -26 -174 -86 -230 -149 -50 -57
-105 -167 -119 -241 -6 -35 -10 -686 -10 -1880 0 -2020 -4 -1894 65 -2016 43
-77 123 -157 200 -200 123 -69 -29 -65 2255 -65 2284 0 2132 -4 2255 65 77 43
157 123 200 200 69 122 65 -5 65 2025 0 2011 4 1884 -59 2008 -59 116 -172
212 -300 253 -60 20 -92 23 -372 27 l-307 4 -4 172 c-3 145 -7 178 -24 216
-42 91 -119 142 -226 148 -117 7 -202 -36 -254 -130 -28 -52 -29 -56 -32 -230
l-4 -178 -944 0 -944 0 0 173 c0 151 -3 177 -21 217 -44 97 -114 142 -229 146
-41 2 -86 0 -100 -5z m3248 -3153 l-3 -1383 -1945 0 -1945 0 -3 1383 -2 1382
1950 0 1950 0 -2 -1382z"/>
<path d="M2473 3004 c-40 -23 -51 -41 -159 -257 l-117 -233 -250 -37 c-264
-39 -296 -49 -332 -104 -26 -39 -34 -86 -23 -138 9 -41 27 -62 195 -228 l185
-183 -41 -248 c-25 -150 -39 -261 -35 -281 8 -42 59 -104 100 -121 67 -28 93
-20 335 104 l229 117 229 -118 c241 -124 267 -132 335 -103 41 17 92 79 100
121 4 20 -10 131 -35 280 l-41 248 183 183 c157 156 186 189 195 226 14 51 8
91 -18 135 -36 61 -66 70 -335 110 l-250 37 -117 233 c-109 219 -119 234 -160
258 -57 33 -117 33 -173 -1z"/>
</g>
</svg>
