<?xml version="1.0" standalone="no"?>
<!DOCTYPE svg PUBLIC "-//W3C//DTD SVG 20010904//EN"
 "http://www.w3.org/TR/2001/REC-SVG-20010904/DTD/svg10.dtd">
<svg version="1.0" xmlns="http://www.w3.org/2000/svg"
 width="512.000000pt" height="512.000000pt" viewBox="0 0 512.000000 512.000000"
 preserveAspectRatio="xMidYMid meet">

<g transform="translate(0.000000,512.000000) scale(0.100000,-0.100000)"
fill="#000000" stroke="none">
<path d="M558 4059 c-68 -35 -78 -71 -78 -279 l0 -180 -105 0 c-86 0 -113 -4
-145 -20 -45 -23 -80 -80 -80 -130 0 -50 35 -107 80 -130 37 -19 58 -20 449
-20 345 0 417 -2 449 -15 96 -39 101 -180 9 -249 -28 -21 -40 -21 -530 -26
-456 -5 -505 -7 -534 -23 -38 -20 -73 -82 -73 -127 0 -50 35 -107 80 -130 38
-19 58 -20 747 -20 l708 0 39 -23 c100 -57 100 -197 0 -254 l-39 -23 -708 0
c-689 0 -709 -1 -747 -20 -45 -23 -80 -80 -80 -130 0 -50 35 -107 80 -130 35
-18 59 -20 220 -20 l180 0 0 -240 c0 -352 0 -352 278 -360 l173 -5 22 -65 c30
-90 69 -152 137 -220 224 -224 586 -224 810 0 68 68 107 130 137 220 l22 65
761 0 761 0 22 -65 c30 -90 69 -152 137 -220 224 -224 586 -224 810 0 68 68
107 130 137 220 l22 65 153 5 c176 6 205 16 238 80 19 38 20 58 20 538 0 542
-2 562 -57 665 -36 64 -119 139 -197 176 -125 60 -133 61 -795 61 l-603 0 -40
22 c-79 45 -78 36 -78 563 l0 465 -1377 0 c-1352 -1 -1379 -1 -1415 -21z
m1052 -2184 c92 -46 160 -153 160 -250 0 -97 -68 -204 -159 -250 -121 -61
-296 1 -364 129 -31 58 -31 184 0 242 30 56 106 121 162 139 57 18 155 14 201
-10z m2650 0 c92 -46 160 -153 160 -250 0 -97 -68 -204 -159 -250 -121 -61
-296 1 -364 129 -31 58 -31 184 0 242 30 56 106 121 162 139 57 18 155 14 201
-10z"/>
<path d="M3650 3690 l0 -360 410 0 c226 0 410 3 410 6 0 13 -125 210 -184 289
-118 159 -233 260 -382 334 -63 31 -227 91 -250 91 -2 0 -4 -162 -4 -360z"/>
</g>
</svg>
