<?xml version="1.0" standalone="no"?>
<!DOCTYPE svg PUBLIC "-//W3C//DTD SVG 20010904//EN"
 "http://www.w3.org/TR/2001/REC-SVG-20010904/DTD/svg10.dtd">
<svg version="1.0" xmlns="http://www.w3.org/2000/svg"
 width="512.000000pt" height="512.000000pt" viewBox="0 0 512.000000 512.000000"
 preserveAspectRatio="xMidYMid meet">

<g transform="translate(0.000000,512.000000) scale(0.100000,-0.100000)"
fill="#000000" stroke="none">
<path d="M2393 5105 c-357 -65 -653 -318 -768 -656 -28 -80 -55 -228 -55 -296
l0 -42 -267 -3 c-266 -3 -268 -3 -325 -30 -107 -50 -185 -146 -208 -254 -5
-27 -62 -708 -126 -1514 -108 -1361 -116 -1472 -106 -1565 37 -341 260 -606
599 -712 l88 -28 1335 0 1335 0 88 28 c339 106 562 371 599 712 10 93 2 205
-106 1565 -64 806 -121 1487 -126 1514 -23 108 -101 204 -208 254 -57 27 -59
27 -324 30 l-268 3 0 42 c0 67 -27 216 -53 292 -99 290 -331 523 -618 620
-154 53 -334 68 -486 40z m304 -301 c271 -56 481 -266 537 -537 9 -42 16 -94
16 -117 l0 -40 150 0 150 0 0 -347 c0 -330 -1 -349 -21 -389 -21 -45 -81 -84
-129 -84 -44 0 -105 38 -128 79 -21 38 -22 47 -22 390 l0 351 -690 0 -690 0 0
-351 c0 -343 -1 -352 -22 -390 -23 -41 -84 -79 -128 -79 -48 0 -108 39 -129
84 -20 40 -21 59 -21 389 l0 347 150 0 150 0 0 40 c0 23 7 75 16 117 77 373
441 614 811 537z m503 -2203 c40 -21 80 -83 80 -125 0 -16 -9 -48 -20 -70 -24
-51 -802 -830 -843 -845 -42 -16 -109 -13 -137 5 -49 33 -402 390 -421 426
-24 48 -24 81 2 134 15 31 32 48 63 63 88 43 131 21 301 -149 l130 -130 340
340 c187 186 354 346 370 354 40 21 93 20 135 -3z"/>
</g>
</svg>
